GSerifWideLow-325.ufo
<glyph name="two" format="1">
  <advance width="601"/>
  <unicode hex="0032"/>
  <outline>
    <contour>
      <point x="152" y="28" type="line"/>
      <point x="129" y="72" type="line"/>
      <point x="453" y="72" type="line"/>
      <point x="453" y="72" type="line"/>
      <point x="453" y="182" type="line"/>
      <point x="533" y="182" type="line"/>
      <point x="533" y="0" type="line"/>
      <point x="69" y="0" type="line"/>
      <point x="69" y="53" type="line" smooth="yes"/>
      <point x="69" y="278"/>
      <point x="419" y="263"/>
      <point x="419" y="424" type="curve" smooth="yes"/>
      <point x="419" y="491"/>
      <point x="375" y="525"/>
      <point x="307" y="525" type="curve" smooth="yes"/>
      <point x="228" y="525"/>
      <point x="182" y="483"/>
      <point x="168" y="401" type="curve"/>
      <point x="76" y="401" type="line"/>
      <point x="94" y="523"/>
      <point x="183" y="596"/>
      <point x="308" y="596" type="curve" smooth="yes"/>
      <point x="430" y="596"/>
      <point x="510" y="525"/>
      <point x="510" y="424" type="curve" smooth="yes"/>
      <point x="510" y="213"/>
      <point x="152" y="224"/>
      <point x="152" y="62" type="curve" smooth="yes"/>
    </contour>
  </outline>
</glyph>
<glyph name="G" format="1">
  <advance width="822"/>
  <unicode hex="0047"/>
  <outline>
    <contour>
      <point x="696" y="282" type="curve"/>
      <point x="419" y="282" type="line"/>
      <point x="419" y="352" type="line"/>
      <point x="752" y="352" type="line"/>
      <point x="752" y="0" type="line"/>
      <point x="675" y="0" type="line"/>
      <point x="675" y="208" type="line"/>
      <point x="690" y="229"/>
      <point x="694" y="239"/>
      <point x="718" y="264" type="curve"/>
      <point x="682" y="80"/>
      <point x="566" y="-10"/>
      <point x="415" y="-10" type="curve" smooth="yes"/>
      <point x="212" y="-10"/>
      <point x="63" y="137"/>
      <point x="63" y="355" type="curve" smooth="yes"/>
      <point x="63" y="569"/>
      <point x="220" y="720"/>
      <point x="426" y="720" type="curve" smooth="yes"/>
      <point x="591" y="720"/>
      <point x="718" y="633"/>
      <point x="741" y="485" type="curve"/>
      <point x="641" y="485" type="line"/>
      <point x="621" y="591"/>
      <point x="536" y="647"/>
      <point x="426" y="647" type="curve" smooth="yes"/>
      <point x="268" y="647"/>
      <point x="155" y="531"/>
      <point x="155" y="355" type="curve" smooth="yes"/>
      <point x="155" y="174"/>
      <point x="260" y="63"/>
      <point x="415" y="63" type="curve" smooth="yes"/>
      <point x="540" y="63"/>
      <point x="663" y="152"/>
      <point x="663" y="304" type="curve" smooth="yes"/>
      <point x="663" y="327" type="line"/>
      <point x="678" y="320"/>
      <point x="696" y="307"/>
    </contour>
  </outline>
</glyph>
<glyph name="k" format="1">
  <advance width="633"/>
  <unicode hex="006B"/>
  <outline>
    <contour>
      <point x="46" y="70" type="line"/>
      <point x="46" y="0" type="line"/>
      <point x="291" y="0" type="line"/>
      <point x="291" y="70" type="line"/>
      <point x="221" y="70" type="line"/>
      <point x="221" y="70" type="line"/>
      <point x="136" y="70" type="line"/>
      <point x="136" y="70" type="line"/>
    </contour>
    <contour>
      <point x="46" y="750" type="line"/>
      <point x="46" y="676" type="line"/>
      <point x="136" y="676" type="line"/>
      <point x="136" y="676" type="line"/>
      <point x="136" y="0" type="line"/>
      <point x="221" y="0" type="line"/>
      <point x="221" y="750" type="line"/>
    </contour>
    <contour>
      <point x="626" y="70" type="line"/>
      <point x="557" y="70" type="line"/>
      <point x="557" y="70" type="line"/>
      <point x="447" y="70" type="line"/>
      <point x="447" y="70" type="line"/>
      <point x="381" y="70" type="line"/>
      <point x="381" y="0" type="line"/>
      <point x="626" y="0" type="line"/>
    </contour>
    <contour>
      <point x="243" y="284" type="line"/>
      <point x="513" y="0" type="line"/>
      <point x="591" y="0" type="line"/>
      <point x="599" y="28" type="line"/>
      <point x="327" y="305" type="line"/>
    </contour>
    <contour>
      <point x="592" y="458" type="line"/>
      <point x="592" y="528" type="line"/>
      <point x="356" y="528" type="line"/>
      <point x="356" y="458" type="line"/>
      <point x="430" y="458" type="line"/>
      <point x="430" y="458" type="line"/>
      <point x="522" y="458" type="line"/>
      <point x="522" y="458" type="line"/>
    </contour>
    <contour>
      <point x="318" y="260" type="line"/>
      <point x="564" y="499" type="line"/>
      <point x="542" y="528" type="line"/>
      <point x="502" y="528" type="line"/>
      <point x="256" y="288" type="line"/>
    </contour>
    <contour>
      <point x="315" y="244" type="line"/>
      <point x="315" y="314" type="line"/>
      <point x="165" y="314" type="line"/>
      <point x="165" y="244" type="line"/>
    </contour>
  </outline>
</glyph>
<glyph name="o" format="1">
  <advance width="652"/>
  <unicode hex="006F"/>
  <outline>
    <contour>
      <point x="326" y="537" type="curve"/>
      <point x="174" y="537"/>
      <point x="53" y="421"/>
      <point x="53" y="263" type="curve" smooth="yes"/>
      <point x="53" y="105"/>
      <point x="174" y="-12"/>
      <point x="326" y="-12" type="curve"/>
      <point x="478" y="-12"/>
      <point x="599" y="104"/>
      <point x="599" y="262" type="curve" smooth="yes"/>
      <point x="599" y="420"/>
      <point x="478" y="537"/>
    </contour>
    <contour>
      <point x="326" y="467" type="curve"/>
      <point x="434" y="467"/>
      <point x="512" y="385"/>
      <point x="512" y="262" type="curve" smooth="yes"/>
      <point x="512" y="139"/>
      <point x="434" y="58"/>
      <point x="326" y="58" type="curve"/>
      <point x="218" y="58"/>
      <point x="140" y="140"/>
      <point x="140" y="263" type="curve" smooth="yes"/>
      <point x="140" y="386"/>
      <point x="218" y="467"/>
    </contour>
  </outline>
</glyph>
<glyph name="p" format="1">
  <advance width="698"/>
  <unicode hex="0070"/>
  <outline>
    <contour>
      <point x="555" y="270" type="curve" smooth="yes"/>
      <point x="555" y="146"/>
      <point x="501" y="61"/>
      <point x="397" y="61" type="curve" smooth="yes"/>
      <point x="316" y="61"/>
      <point x="245" y="113"/>
      <point x="200" y="205" type="curve"/>
      <point x="155" y="175" type="line"/>
      <point x="225" y="47"/>
      <point x="287" y="-11"/>
      <point x="395" y="-11" type="curve" smooth="yes"/>
      <point x="547" y="-11"/>
      <point x="645" y="105"/>
      <point x="645" y="270" type="curve" smooth="yes"/>
      <point x="645" y="432"/>
      <point x="554" y="538"/>
      <point x="408" y="538" type="curve" smooth="yes"/>
      <point x="299" y="538"/>
      <point x="236" y="479"/>
      <point x="155" y="352" type="curve"/>
      <point x="199" y="323" type="line"/>
      <point x="246" y="415"/>
      <point x="319" y="466"/>
      <point x="402" y="466" type="curve" smooth="yes"/>
      <point x="502" y="466"/>
      <point x="555" y="391"/>
    </contour>
    <contour>
      <point x="46" y="-230" type="line"/>
      <point x="331" y="-230" type="line"/>
      <point x="331" y="-156" type="line"/>
      <point x="221" y="-156" type="line"/>
      <point x="221" y="-156" type="line"/>
      <point x="136" y="-156" type="line"/>
      <point x="136" y="-156" type="line"/>
      <point x="46" y="-156" type="line"/>
    </contour>
    <contour>
      <point x="46" y="528" type="line"/>
      <point x="46" y="455" type="line"/>
      <point x="136" y="455" type="line"/>
      <point x="136" y="455" type="line"/>
      <point x="136" y="-230" type="line"/>
      <point x="221" y="-230" type="line"/>
      <point x="221" y="403" type="line"/>
      <point x="211" y="411" type="line"/>
      <point x="211" y="528" type="line"/>
    </contour>
  </outline>
</glyph>
<glyph name="y" format="1">
  <advance width="602"/>
  <unicode hex="0079"/>
  <outline>
    <contour>
      <point x="253" y="528" type="line"/>
      <point x="5" y="528" type="line"/>
      <point x="5" y="458" type="line"/>
      <point x="81" y="458" type="line"/>
      <point x="81" y="458" type="line"/>
      <point x="168" y="458" type="line"/>
      <point x="168" y="458" type="line"/>
      <point x="253" y="458" type="line"/>
    </contour>
    <contour>
      <point x="327" y="0" type="line"/>
      <point x="335" y="37" type="line"/>
      <point x="140" y="528" type="line"/>
      <point x="52" y="528" type="line"/>
      <point x="266" y="0" type="line"/>
    </contour>
    <contour>
      <point x="358" y="528" type="line"/>
      <point x="358" y="458" type="line"/>
      <point x="444" y="458" type="line"/>
      <point x="444" y="458" type="line"/>
      <point x="522" y="458" type="line"/>
      <point x="522" y="458" type="line"/>
      <point x="597" y="458" type="line"/>
      <point x="597" y="528" type="line"/>
    </contour>
    <contour>
      <point x="245" y="-230" type="line"/>
      <point x="550" y="528" type="line"/>
      <point x="471" y="528" type="line"/>
      <point x="282" y="49" type="line"/>
      <point x="278" y="35" type="line"/>
      <point x="143" y="-230" type="line"/>
    </contour>
  </outline>
</glyph>
<glyph name="E.alt" format="1">
  <advance width="655"/>
  <outline>
    <contour>
      <point x="153" y="0" type="line"/>
      <point x="241" y="0" type="line"/>
      <point x="241" y="710" type="line"/>
      <point x="153" y="710" type="line"/>
    </contour>
    <contour>
      <point x="53" y="70" type="line"/>
      <point x="53" y="0" type="line"/>
      <point x="577" y="0" type="line"/>
      <point x="577" y="70" type="line"/>
    </contour>
    <contour>
      <point x="53" y="710" type="line"/>
      <point x="53" y="640" type="line"/>
      <point x="554" y="640" type="line"/>
      <point x="554" y="710" type="line"/>
    </contour>
    <contour>
      <point x="215" y="393" type="line"/>
      <point x="215" y="329" type="line"/>
      <point x="434" y="329" type="line"/>
      <point x="434" y="393" type="line"/>
    </contour>
    <contour>
      <point x="579" y="710" type="line"/>
      <point x="504" y="710" type="line"/>
      <point x="504" y="536" type="line"/>
      <point x="579" y="536" type="line"/>
    </contour>
    <contour>
      <point x="602" y="194" type="line"/>
      <point x="525" y="194" type="line"/>
      <point x="525" y="0" type="line"/>
      <point x="602" y="0" type="line"/>
    </contour>
    <contour>
      <point x="459" y="458" type="line"/>
      <point x="386" y="458" type="line"/>
      <point x="386" y="264" type="line"/>
      <point x="459" y="264" type="line"/>
    </contour>
  </outline>
</glyph>
<glyph name="W.alt" format="1">
  <advance width="1129"/>
  <outline>
    <contour>
      <point x="168" y="710" type="line"/>
      <point x="80" y="710" type="line"/>
      <point x="293" y="0" type="line"/>
      <point x="376" y="0" type="line"/>
      <point x="366" y="32" type="line"/>
    </contour>
    <contour>
      <point x="30" y="710" type="line"/>
      <point x="30" y="640" type="line"/>
      <point x="102" y="640" type="line"/>
      <point x="102" y="640" type="line"/>
      <point x="189" y="640" type="line"/>
      <point x="189" y="640" type="line"/>
      <point x="288" y="640" type="line"/>
      <point x="288" y="710" type="line"/>
    </contour>
    <contour>
      <point x="1049" y="710" type="line"/>
      <point x="972" y="710" type="line"/>
      <point x="762" y="0" type="line"/>
      <point x="836" y="0" type="line"/>
    </contour>
    <contour>
      <point x="1099" y="710" type="line"/>
      <point x="852" y="710" type="line"/>
      <point x="852" y="640" type="line"/>
      <point x="951" y="640" type="line"/>
      <point x="951" y="640" type="line"/>
      <point x="1028" y="640" type="line"/>
      <point x="1028" y="640" type="line"/>
      <point x="1099" y="640" type="line"/>
    </contour>
    <contour>
      <point x="592" y="710" type="line"/>
      <point x="540" y="710" type="line"/>
      <point x="547" y="594" type="line"/>
      <point x="731" y="0" type="line"/>
      <point x="813" y="0" type="line"/>
      <point x="801" y="32" type="line"/>
    </contour>
    <contour>
      <point x="436" y="710" type="line"/>
      <point x="436" y="640" type="line"/>
      <point x="527" y="640" type="line"/>
      <point x="527" y="640" type="line"/>
      <point x="613" y="640" type="line"/>
      <point x="613" y="640" type="line"/>
      <point x="704" y="640" type="line"/>
      <point x="704" y="710" type="line"/>
    </contour>
    <contour>
      <point x="538" y="675" type="line"/>
      <point x="326" y="0" type="line"/>
      <point x="398" y="0" type="line"/>
      <point x="578" y="577" type="line"/>
    </contour>
  </outline>
</glyph>
<glyph name="a.srf2" format="1">
  <advance width="581"/>
  <outline>
    <contour>
      <point x="410" y="301" type="line"/>
      <point x="166" y="301"/>
      <point x="50" y="241"/>
      <point x="50" y="131" type="curve" smooth="yes"/>
      <point x="50" y="40"/>
      <point x="125" y="-11"/>
      <point x="221" y="-11" type="curve" smooth="yes"/>
      <point x="317" y="-11"/>
      <point x="380" y="37"/>
      <point x="409" y="106" type="curve"/>
      <point x="448" y="164"/>
      <point x="399" y="150"/>
      <point x="388" y="146" type="curve"/>
      <point x="367" y="97"/>
      <point x="317" y="56"/>
      <point x="245" y="56" type="curve" smooth="yes"/>
      <point x="178" y="56"/>
      <point x="140" y="83"/>
      <point x="140" y="131" type="curve" smooth="yes"/>
      <point x="140" y="198"/>
      <point x="215" y="242"/>
      <point x="410" y="242" type="curve"/>
    </contour>
    <contour>
      <point x="274" y="470" type="curve" smooth="yes"/>
      <point x="342" y="470"/>
      <point x="384" y="445"/>
      <point x="384" y="377" type="curve" smooth="yes"/>
      <point x="384" y="115" type="line"/>
      <point x="395" y="107" type="line"/>
      <point x="395" y="0" type="line"/>
      <point x="558" y="0" type="line"/>
      <point x="558" y="70" type="line"/>
      <point x="468" y="70" type="line"/>
      <point x="468" y="70" type="line"/>
      <point x="468" y="388" type="line" smooth="yes"/>
      <point x="468" y="499"/>
      <point x="383" y="538"/>
      <point x="274" y="538" type="curve" smooth="yes"/>
      <point x="171" y="538"/>
      <point x="100" y="491"/>
      <point x="71" y="448" type="curve"/>
      <point x="71" y="351" type="line"/>
      <point x="158" y="351" type="line"/>
      <point x="158" y="443" type="line"/>
      <point x="131" y="443"/>
      <point x="108" y="417"/>
      <point x="117" y="369" type="curve"/>
      <point x="140" y="424"/>
      <point x="181" y="470"/>
    </contour>
  </outline>
</glyph>
<glyph name="c.srf" format="1">
  <advance width="614"/>
  <outline>
    <contour>
      <point x="313" y="465" type="curve" smooth="yes"/>
      <point x="405" y="465"/>
      <point x="446" y="399"/>
      <point x="458" y="350" type="curve"/>
      <point x="557" y="350" type="line"/>
      <point x="557" y="528" type="line"/>
      <point x="484" y="528" type="line"/>
      <point x="484" y="366" type="line"/>
      <point x="501" y="382" type="line"/>
      <point x="490" y="485"/>
      <point x="412" y="537"/>
      <point x="313" y="537" type="curve" smooth="yes"/>
      <point x="165" y="537"/>
      <point x="53" y="423"/>
      <point x="53" y="263" type="curve" smooth="yes"/>
      <point x="53" y="103"/>
      <point x="174" y="-12"/>
      <point x="329" y="-12" type="curve" smooth="yes"/>
      <point x="440" y="-12"/>
      <point x="529" y="46"/>
      <point x="562" y="143" type="curve"/>
      <point x="474" y="143" type="line"/>
      <point x="449" y="91"/>
      <point x="399" y="60"/>
      <point x="329" y="60" type="curve" smooth="yes"/>
      <point x="222" y="60"/>
      <point x="143" y="141"/>
      <point x="143" y="263" type="curve" smooth="yes"/>
      <point x="143" y="385"/>
      <point x="213" y="465"/>
    </contour>
  </outline>
</glyph>
<glyph name="c.srf2" format="1">
  <advance width="614"/>
  <outline>
    <contour>
      <point x="326" y="465" type="curve" smooth="yes"/>
      <point x="407" y="465"/>
      <point x="465" y="428"/>
      <point x="491" y="372" type="curve"/>
      <point x="499" y="418"/>
      <point x="485" y="440"/>
      <point x="458" y="439" type="curve"/>
      <point x="458" y="322" type="line"/>
      <point x="545" y="322" type="line"/>
      <point x="545" y="437" type="line"/>
      <point x="517" y="487"/>
      <point x="438" y="537"/>
      <point x="326" y="537" type="curve" smooth="yes"/>
      <point x="172" y="537"/>
      <point x="53" y="423"/>
      <point x="53" y="263" type="curve" smooth="yes"/>
      <point x="53" y="103"/>
      <point x="174" y="-12"/>
      <point x="329" y="-12" type="curve" smooth="yes"/>
      <point x="440" y="-12"/>
      <point x="529" y="46"/>
      <point x="562" y="143" type="curve"/>
      <point x="474" y="143" type="line"/>
      <point x="449" y="91"/>
      <point x="399" y="60"/>
      <point x="329" y="60" type="curve" smooth="yes"/>
      <point x="222" y="60"/>
      <point x="143" y="141"/>
      <point x="143" y="263" type="curve" smooth="yes"/>
      <point x="143" y="385"/>
      <point x="220" y="465"/>
    </contour>
  </outline>
</glyph>
<glyph name="e.alt" format="1">
  <advance width="589"/>
  <outline>
    <contour>
      <point x="477" y="301" type="line"/>
      <point x="450" y="273" type="line"/>
      <point x="447" y="403"/>
      <point x="408" y="465"/>
      <point x="309" y="465" type="curve" smooth="yes"/>
      <point x="219" y="465"/>
      <point x="140" y="386"/>
      <point x="140" y="257" type="curve" smooth="yes"/>
      <point x="140" y="119"/>
      <point x="230" y="63"/>
      <point x="345" y="63" type="curve" smooth="yes"/>
      <point x="418" y="63"/>
      <point x="479" y="79"/>
      <point x="522" y="93" type="curve"/>
      <point x="522" y="13" type="line"/>
      <point x="484" y="-2"/>
      <point x="417" y="-12"/>
      <point x="345" y="-12" type="curve" smooth="yes"/>
      <point x="180" y="-12"/>
      <point x="53" y="81"/>
      <point x="53" y="257" type="curve" smooth="yes"/>
      <point x="53" y="424"/>
      <point x="170" y="537"/>
      <point x="309" y="537" type="curve" smooth="yes"/>
      <point x="463" y="537"/>
      <point x="541" y="437"/>
      <point x="541" y="236" type="curve"/>
      <point x="111" y="236" type="line"/>
      <point x="110" y="301" type="line"/>
    </contour>
  </outline>
</glyph>
<glyph name="five.alt" format="1">
  <advance width="609"/>
  <outline>
    <contour>
      <point x="201" y="309" type="line"/>
      <point x="218" y="539" type="line"/>
      <point x="189" y="520" type="line"/>
      <point x="525" y="520" type="line"/>
      <point x="525" y="590" type="line"/>
      <point x="146" y="590" type="line"/>
      <point x="124" y="309" type="line"/>
      <point x="124" y="265" type="line"/>
      <point x="216" y="253" type="line" smooth="yes"/>
      <point x="374" y="233"/>
      <point x="469" y="187"/>
      <point x="469" y="80" type="curve" smooth="yes"/>
      <point x="469" y="-26"/>
      <point x="401" y="-69"/>
      <point x="315" y="-69" type="curve" smooth="yes"/>
      <point x="227" y="-69"/>
      <point x="160" y="-28"/>
      <point x="144" y="74" type="curve"/>
      <point x="52" y="74" type="line"/>
      <point x="69" y="-69"/>
      <point x="175" y="-140"/>
      <point x="315" y="-140" type="curve" smooth="yes"/>
      <point x="451" y="-140"/>
      <point x="560" y="-66"/>
      <point x="560" y="80" type="curve" smooth="yes"/>
      <point x="560" y="219"/>
      <point x="449" y="295"/>
      <point x="252" y="322" type="curve" smooth="yes"/>
      <point x="158" y="335" type="line"/>
    </contour>
  </outline>
</glyph>
<glyph name="five.alt2" format="1">
  <advance width="615"/>
  <outline>
    <contour>
      <point x="101" y="587" type="line"/>
      <point x="511" y="587" type="line"/>
      <point x="511" y="418" type="line"/>
      <point x="436" y="418" type="line"/>
      <point x="436" y="517" type="line"/>
      <point x="436" y="517" type="line"/>
      <point x="163" y="517" type="line"/>
      <point x="182" y="536" type="line"/>
      <point x="182" y="289" type="line"/>
      <point x="101" y="289" type="line"/>
    </contour>
    <contour>
      <point x="257" y="315" type="line" smooth="yes"/>
      <point x="468" y="315"/>
      <point x="561" y="230"/>
      <point x="561" y="93" type="curve" smooth="yes"/>
      <point x="561" y="-58"/>
      <point x="446" y="-133"/>
      <point x="309" y="-133" type="curve" smooth="yes"/>
      <point x="166" y="-133"/>
      <point x="61" y="-62"/>
      <point x="44" y="81" type="curve"/>
      <point x="136" y="81" type="line"/>
      <point x="153" y="-20"/>
      <point x="218" y="-62"/>
      <point x="309" y="-62" type="curve" smooth="yes"/>
      <point x="398" y="-62"/>
      <point x="470" y="-18"/>
      <point x="470" y="93" type="curve" smooth="yes"/>
      <point x="470" y="206"/>
      <point x="395" y="245"/>
      <point x="239" y="245" type="curve" smooth="yes"/>
      <point x="101" y="245" type="line"/>
      <point x="101" y="315" type="line"/>
    </contour>
  </outline>
</glyph>
<glyph name="five.old" format="1">
  <advance width="599"/>
  <outline>
    <contour>
      <point x="179" y="225" type="line"/>
      <point x="232" y="477" type="line"/>
      <point x="202" y="456" type="line"/>
      <point x="512" y="456" type="line"/>
      <point x="512" y="528" type="line"/>
      <point x="163" y="528" type="line"/>
      <point x="100" y="225" type="line"/>
      <point x="100" y="181" type="line"/>
      <point x="217" y="181" type="line" smooth="yes"/>
      <point x="381" y="181"/>
      <point x="463" y="135"/>
      <point x="463" y="24" type="curve" smooth="yes"/>
      <point x="463" y="-77"/>
      <point x="394" y="-122"/>
      <point x="309" y="-122" type="curve" smooth="yes"/>
      <point x="221" y="-122"/>
      <point x="158" y="-81"/>
      <point x="144" y="22" type="curve"/>
      <point x="50" y="22" type="line"/>
      <point x="67" y="-122"/>
      <point x="169" y="-193"/>
      <point x="309" y="-193" type="curve" smooth="yes"/>
      <point x="442" y="-193"/>
      <point x="554" y="-118"/>
      <point x="554" y="24" type="curve" smooth="yes"/>
      <point x="554" y="165"/>
      <point x="451" y="253"/>
      <point x="248" y="253" type="curve" smooth="yes"/>
      <point x="134" y="253" type="line"/>
    </contour>
  </outline>
</glyph>
<glyph name="four.alt" format="1">
  <advance width="608"/>
  <outline>
    <contour>
      <point x="250" y="-53" type="line"/>
      <point x="250" y="-123" type="line"/>
      <point x="578" y="-123" type="line"/>
      <point x="578" y="-53" type="line"/>
      <point x="458" y="-53" type="line"/>
      <point x="458" y="-53" type="line"/>
      <point x="370" y="-53" type="line"/>
      <point x="370" y="-53" type="line"/>
    </contour>
    <contour>
      <point x="370" y="587" type="line"/>
      <point x="370" y="-123" type="line"/>
      <point x="458" y="-123" type="line"/>
      <point x="458" y="587" type="line"/>
    </contour>
    <contour>
      <point x="30" y="64" type="line"/>
      <point x="588" y="64" type="line"/>
      <point x="588" y="134" type="line"/>
      <point x="65" y="134" type="line"/>
      <point x="70" y="82" type="line"/>
      <point x="411" y="531" type="line"/>
      <point x="426" y="587" type="line"/>
      <point x="368" y="587" type="line"/>
      <point x="30" y="139" type="line"/>
    </contour>
  </outline>
</glyph>
<glyph name="k.alt2" format="1">
  <advance width="633"/>
  <outline>
    <contour>
      <point x="46" y="70" type="line"/>
      <point x="46" y="0" type="line"/>
      <point x="291" y="0" type="line"/>
      <point x="291" y="70" type="line"/>
      <point x="221" y="70" type="line"/>
      <point x="221" y="70" type="line"/>
      <point x="136" y="70" type="line"/>
      <point x="136" y="70" type="line"/>
    </contour>
    <contour>
      <point x="46" y="750" type="line"/>
      <point x="46" y="676" type="line"/>
      <point x="136" y="676" type="line"/>
      <point x="136" y="676" type="line"/>
      <point x="136" y="0" type="line"/>
      <point x="221" y="0" type="line"/>
      <point x="221" y="750" type="line"/>
    </contour>
    <contour>
      <point x="611" y="70" type="line"/>
      <point x="551" y="70" type="line"/>
      <point x="551" y="70" type="line"/>
      <point x="439" y="70" type="line"/>
      <point x="439" y="70" type="line"/>
      <point x="366" y="70" type="line"/>
      <point x="366" y="0" type="line"/>
      <point x="611" y="0" type="line"/>
    </contour>
    <contour>
      <point x="581" y="458" type="line"/>
      <point x="581" y="528" type="line"/>
      <point x="348" y="528" type="line"/>
      <point x="348" y="458" type="line"/>
      <point x="421" y="458" type="line"/>
      <point x="421" y="458" type="line"/>
      <point x="514" y="458" type="line"/>
      <point x="514" y="458" type="line"/>
    </contour>
    <contour>
      <point x="323" y="307" type="line"/>
      <point x="313" y="262" type="line"/>
      <point x="556" y="499" type="line"/>
      <point x="534" y="528" type="line"/>
      <point x="494" y="528" type="line"/>
      <point x="242" y="283" type="line"/>
      <point x="242" y="278" type="line"/>
      <point x="503" y="0" type="line"/>
      <point x="581" y="0" type="line"/>
      <point x="572" y="48" type="line"/>
    </contour>
  </outline>
</glyph>
<glyph name="seven.old" format="1">
  <advance width="525"/>
  <outline>
    <contour>
      <point x="103" y="-188" type="line"/>
      <point x="283" y="65"/>
      <point x="398" y="283"/>
      <point x="398" y="475" type="curve"/>
      <point x="421" y="456" type="line"/>
      <point x="120" y="456" type="line"/>
      <point x="120" y="456" type="line"/>
      <point x="120" y="324" type="line"/>
      <point x="40" y="324" type="line"/>
      <point x="40" y="528" type="line"/>
      <point x="480" y="528" type="line"/>
      <point x="480" y="474" type="line" smooth="yes"/>
      <point x="480" y="279"/>
      <point x="377" y="58"/>
      <point x="210" y="-188" type="curve"/>
    </contour>
  </outline>
</glyph>
<glyph name="w.alt" format="1">
  <advance width="857"/>
  <outline>
    <contour>
      <point x="243" y="528" type="line"/>
      <point x="10" y="528" type="line"/>
      <point x="10" y="458" type="line"/>
      <point x="73" y="458" type="line"/>
      <point x="73" y="458" type="line"/>
      <point x="160" y="458" type="line"/>
      <point x="160" y="458" type="line"/>
      <point x="243" y="458" type="line"/>
    </contour>
    <contour>
      <point x="275" y="0" type="line"/>
      <point x="273" y="37" type="line"/>
      <point x="140" y="528" type="line"/>
      <point x="52" y="528" type="line"/>
      <point x="204" y="0" type="line"/>
    </contour>
    <contour>
      <point x="599" y="0" type="line"/>
      <point x="653" y="0" type="line"/>
      <point x="804" y="528" type="line"/>
      <point x="730" y="528" type="line"/>
      <point x="601" y="45" type="line"/>
    </contour>
    <contour>
      <point x="628" y="528" type="line"/>
      <point x="628" y="458" type="line"/>
      <point x="710" y="458" type="line"/>
      <point x="710" y="458" type="line"/>
      <point x="783" y="458" type="line"/>
      <point x="783" y="458" type="line"/>
      <point x="847" y="458" type="line"/>
      <point x="847" y="528" type="line"/>
    </contour>
    <contour>
      <point x="418" y="422" type="line"/>
      <point x="554" y="0" type="line"/>
      <point x="625" y="0" type="line"/>
      <point x="621" y="37" type="line"/>
      <point x="465" y="528" type="line"/>
      <point x="406" y="528" type="line"/>
      <point x="251" y="44" type="line"/>
      <point x="249" y="0" type="line"/>
      <point x="303" y="0" type="line"/>
      <point x="438" y="422" type="line"/>
    </contour>
    <contour>
      <point x="313" y="528" type="line"/>
      <point x="313" y="458" type="line"/>
      <point x="384" y="458" type="line"/>
      <point x="384" y="458" type="line"/>
      <point x="487" y="458" type="line"/>
      <point x="487" y="458" type="line"/>
      <point x="557" y="458" type="line"/>
      <point x="557" y="528" type="line"/>
    </contour>
  </outline>
</glyph>
<glyph name="zero.old" format="1">
  <advance width="642"/>
  <outline>
    <contour>
      <point x="321" y="537" type="curve"/>
      <point x="168" y="537"/>
      <point x="45" y="421"/>
      <point x="45" y="263" type="curve" smooth="yes"/>
      <point x="45" y="105"/>
      <point x="168" y="-12"/>
      <point x="321" y="-12" type="curve"/>
      <point x="474" y="-12"/>
      <point x="597" y="104"/>
      <point x="597" y="262" type="curve" smooth="yes"/>
      <point x="597" y="420"/>
      <point x="474" y="537"/>
    </contour>
    <contour>
      <point x="321" y="465" type="curve"/>
      <point x="428" y="465"/>
      <point x="505" y="384"/>
      <point x="505" y="262" type="curve" smooth="yes"/>
      <point x="505" y="140"/>
      <point x="428" y="60"/>
      <point x="321" y="60" type="curve"/>
      <point x="214" y="60"/>
      <point x="137" y="141"/>
      <point x="137" y="263" type="curve" smooth="yes"/>
      <point x="137" y="385"/>
      <point x="214" y="465"/>
    </contour>
  </outline>
</glyph>
